<svg id="Layer_1" enable-background="new 0 0 512 512" height="512" viewBox="0 0 512 512" width="512" xmlns="http://www.w3.org/2000/svg"><g><path d="m394.2 402.4c0 4.3-2.8 8.1-6.9 9.5-20.9 6.9-56 16.1-96.6 16.1-51 0-93-13-126-44.5-29-28-47-73-47-125.5.5-100.5 69.5-174 182.5-174 27.3 0 50.4 4.2 66.8 9 9.7 2.9 15.2 13.2 12.4 22.9-2.9 9.9-13.3 15.5-23.2 12.4-14.9-4.7-33.1-7.9-57-7.9-82 0-135.5 51-135.5 135.5 0 85.5 51.5 136 130 136 28.5 0 48-4 58-9v-100.4h-51c-9.7 0-17.5-7.8-17.5-17.5 0-9.7 7.8-17.5 17.5-17.5h83.5c5.5 0 10 4.5 10 10z"/></g></svg>